# MagicaVoxel @ Ephtracy

# group
o 

# material
mtllib EmptyBed-3.mtl
usemtl palette

# normals
vn -1 0 0
vn 1 0 0
vn 0 0 1
vn 0 0 -1
vn 0 -1 0
vn 0 1 0

# texcoords
vt 0.0878906 0.5
vt 0.0917969 0.5
vt 0.650391 0.5
vt 0.654297 0.5
vt 0.900391 0.5
vt 0.962891 0.5
vt 0.994141 0.5

# verts
v -0.2 0.6 7.1
v -0.2 0.6 7
v -0.2 0.7 7.1
v -0.2 0.7 7
v -0.0999999 0.5 7.1
v -0.0999999 0.5 7
v -0.0999999 0.6 7.2
v -0.0999999 0.6 7.1
v -0.0999999 0.6 7
v -0.0999999 0.6 6.9
v -0.0999999 0.7 7.1
v -0.0999999 0.7 7
v -0.0999999 0.8 7.2
v -0.0999999 0.8 7.1
v -0.0999999 0.8 7
v -0.0999999 0.9 7
v -0.0999999 0.9 6.9
v -0.0999999 1 7
v -0.0999999 1 6.9
v 5.96046e-08 0.8 7.1
v 5.96046e-08 0.8 7
v 5.96046e-08 0.9 7.1
v 5.96046e-08 0.9 7
v 0.4 0.5 7.2
v 0.4 0.5 7.1
v 0.4 0.5 6.9
v 0.4 0.6 7.2
v 0.4 0.6 7.1
v 0.4 0.6 7
v 0.4 0.6 6.9
v 0.4 0.7 7.1
v 0.4 0.7 7
v 0.4 0.8 7.1
v 0.4 0.8 7
v 0.4 0.9 7.1
v 0.4 0.9 7
v 0.5 0.6 7.2
v 0.5 0.6 7.1
v 0.5 0.6 7
v 0.5 0.6 6.9
v 0.5 0.7 7.2
v 0.5 0.7 7.1
v 0.5 0.7 7
v 0.5 0.7 6.9
v 0.5 0.8 7.2
v 0.5 0.8 7.1
v 0.5 0.8 7
v 0.5 0.8 6.9
v 0.5 0.9 7.1
v 0.5 0.9 7
v 0.5 1 7.2
v 0.5 1 7.1
v 0.5 1 7
v 0.5 1.1 7
v 0.5 1.1 6.9
v 0.5 1.2 7
v 0.5 1.2 6.9
v 0.6 1 7.1
v 0.6 1 7
v 0.6 1.1 7.1
v 0.6 1.1 7
v 5.96046e-08 0.5 7.1
v 5.96046e-08 0.5 7
v 5.96046e-08 0.6 7.2
v 5.96046e-08 0.6 7.1
v 5.96046e-08 0.6 7
v 5.96046e-08 0.6 6.9
v 5.96046e-08 0.7 7.1
v 5.96046e-08 0.7 7
v 5.96046e-08 0.8 7.2
v 5.96046e-08 0.8 7.1
v 5.96046e-08 0.8 7
v 5.96046e-08 0.9 7
v 5.96046e-08 0.9 6.9
v 5.96046e-08 1 7
v 5.96046e-08 1 6.9
v 0.1 0.6 7.1
v 0.1 0.6 7
v 0.1 0.7 7.1
v 0.1 0.7 7
v 0.1 0.8 7.1
v 0.1 0.8 7
v 0.1 0.9 7.1
v 0.1 0.9 7
v 0.6 0.6 7.2
v 0.6 0.6 7.1
v 0.6 0.6 7
v 0.6 0.6 6.9
v 0.6 0.7 7.2
v 0.6 0.7 7.1
v 0.6 0.7 7
v 0.6 0.7 6.9
v 0.6 0.8 7.2
v 0.6 0.8 7.1
v 0.6 0.8 7
v 0.6 0.8 6.9
v 0.6 0.9 7.1
v 0.6 0.9 7
v 0.6 1 7.2
v 0.6 1 7.1
v 0.6 1 7
v 0.6 1.1 7
v 0.6 1.1 6.9
v 0.6 1.2 7
v 0.6 1.2 6.9
v 0.7 0.5 7.2
v 0.7 0.5 7.1
v 0.7 0.5 7
v 0.7 0.5 6.9
v 0.7 0.6 7.2
v 0.7 0.6 7.1
v 0.7 0.6 7
v 0.7 0.6 6.9
v 0.7 0.7 7.1
v 0.7 0.7 7
v 0.7 0.8 7.1
v 0.7 0.8 7
v 0.7 0.9 7.1
v 0.7 0.9 7
v 0.7 1 7.1
v 0.7 1 7
v 0.7 1.1 7.1
v 0.7 1.1 7
v -0.0999999 0.6 7.2
v -0.0999999 0.8 7.2
v 5.96046e-08 0.6 7.2
v 5.96046e-08 0.8 7.2
v 0.4 0.5 7.2
v 0.4 0.6 7.2
v 0.5 0.6 7.2
v 0.5 0.7 7.2
v 0.5 0.8 7.2
v 0.5 1 7.2
v 0.6 0.5 7.2
v 0.6 0.6 7.2
v 0.6 0.7 7.2
v 0.6 0.8 7.2
v 0.6 1 7.2
v 0.7 0.5 7.2
v 0.7 0.6 7.2
v -0.2 0.6 7.1
v -0.2 0.7 7.1
v -0.0999999 0.5 7.1
v -0.0999999 0.6 7.1
v -0.0999999 0.7 7.1
v 5.96046e-08 0.5 7.1
v 5.96046e-08 0.6 7.1
v 5.96046e-08 0.7 7.1
v 5.96046e-08 0.8 7.1
v 5.96046e-08 0.9 7.1
v 0.1 0.6 7.1
v 0.1 0.7 7.1
v 0.1 0.8 7.1
v 0.1 0.9 7.1
v 0.4 0.6 7.1
v 0.4 0.7 7.1
v 0.4 0.8 7.1
v 0.4 0.9 7.1
v 0.5 0.6 7.1
v 0.5 0.7 7.1
v 0.5 0.8 7.1
v 0.5 0.9 7.1
v 0.6 0.6 7.1
v 0.6 0.7 7.1
v 0.6 0.8 7.1
v 0.6 0.9 7.1
v 0.6 1 7.1
v 0.6 1.1 7.1
v 0.7 0.6 7.1
v 0.7 0.7 7.1
v 0.7 0.8 7.1
v 0.7 0.9 7.1
v 0.7 1 7.1
v 0.7 1.1 7.1
v -0.0999999 0.8 7
v -0.0999999 0.9 7
v -0.0999999 1 7
v 5.96046e-08 0.8 7
v 5.96046e-08 0.9 7
v 5.96046e-08 1 7
v 0.5 1 7
v 0.5 1.1 7
v 0.5 1.2 7
v 0.6 1 7
v 0.6 1.1 7
v 0.6 1.2 7
v -0.2 0.6 7
v -0.2 0.7 7
v -0.0999999 0.5 7
v -0.0999999 0.6 7
v -0.0999999 0.7 7
v 5.96046e-08 0.5 7
v 5.96046e-08 0.6 7
v 5.96046e-08 0.7 7
v 5.96046e-08 0.8 7
v 5.96046e-08 0.9 7
v 0.1 0.6 7
v 0.1 0.7 7
v 0.1 0.8 7
v 0.1 0.9 7
v 0.4 0.6 7
v 0.4 0.7 7
v 0.4 0.8 7
v 0.4 0.9 7
v 0.5 0.6 7
v 0.5 0.7 7
v 0.5 0.8 7
v 0.5 0.9 7
v 0.6 0.6 7
v 0.6 0.7 7
v 0.6 0.8 7
v 0.6 0.9 7
v 0.6 1 7
v 0.6 1.1 7
v 0.7 0.6 7
v 0.7 0.7 7
v 0.7 0.8 7
v 0.7 0.9 7
v 0.7 1 7
v 0.7 1.1 7
v -0.0999999 0.6 6.9
v -0.0999999 0.9 6.9
v -0.0999999 1 6.9
v 5.96046e-08 0.6 6.9
v 5.96046e-08 0.9 6.9
v 5.96046e-08 1 6.9
v 0.4 0.5 6.9
v 0.4 0.6 6.9
v 0.5 0.5 6.9
v 0.5 0.6 6.9
v 0.5 0.7 6.9
v 0.5 0.8 6.9
v 0.5 1.1 6.9
v 0.5 1.2 6.9
v 0.6 0.5 6.9
v 0.6 0.6 6.9
v 0.6 0.7 6.9
v 0.6 0.8 6.9
v 0.6 1.1 6.9
v 0.6 1.2 6.9
v 0.7 0.5 6.9
v 0.7 0.6 6.9
v 0.4 0.5 7.2
v 0.6 0.5 7.2
v 0.7 0.5 7.2
v -0.0999999 0.5 7.1
v 5.96046e-08 0.5 7.1
v 0.4 0.5 7.1
v 0.5 0.5 7.1
v 0.6 0.5 7.1
v 0.7 0.5 7.1
v -0.0999999 0.5 7
v 5.96046e-08 0.5 7
v 0.5 0.5 7
v 0.6 0.5 7
v 0.7 0.5 7
v 0.4 0.5 6.9
v 0.5 0.5 6.9
v 0.6 0.5 6.9
v 0.7 0.5 6.9
v -0.0999999 0.6 7.2
v 5.96046e-08 0.6 7.2
v -0.2 0.6 7.1
v -0.0999999 0.6 7.1
v 5.96046e-08 0.6 7.1
v 0.1 0.6 7.1
v -0.2 0.6 7
v -0.0999999 0.6 7
v 5.96046e-08 0.6 7
v 0.1 0.6 7
v -0.0999999 0.6 6.9
v 5.96046e-08 0.6 6.9
v 0.5 0.8 7.2
v 0.6 0.8 7.2
v 0.4 0.8 7.1
v 0.5 0.8 7.1
v 0.6 0.8 7.1
v 0.7 0.8 7.1
v 0.4 0.8 7
v 0.5 0.8 7
v 0.6 0.8 7
v 0.7 0.8 7
v 0.5 0.8 6.9
v 0.6 0.8 6.9
v 0.4 0.6 7.2
v 0.5 0.6 7.2
v 0.6 0.6 7.2
v 0.7 0.6 7.2
v 0.4 0.6 7.1
v 0.5 0.6 7.1
v 0.6 0.6 7.1
v 0.7 0.6 7.1
v 0.4 0.6 7
v 0.5 0.6 7
v 0.6 0.6 7
v 0.7 0.6 7
v 0.4 0.6 6.9
v 0.5 0.6 6.9
v 0.6 0.6 6.9
v 0.7 0.6 6.9
v 0.5 0.7 7.2
v 0.6 0.7 7.2
v -0.2 0.7 7.1
v -0.0999999 0.7 7.1
v 0.4 0.7 7.1
v 0.5 0.7 7.1
v 0.6 0.7 7.1
v 0.7 0.7 7.1
v -0.2 0.7 7
v -0.0999999 0.7 7
v 0.4 0.7 7
v 0.5 0.7 7
v 0.6 0.7 7
v 0.7 0.7 7
v 0.5 0.7 6.9
v 0.6 0.7 6.9
v -0.0999999 0.8 7.2
v 5.96046e-08 0.8 7.2
v -0.0999999 0.8 7.1
v 5.96046e-08 0.8 7.1
v -0.0999999 0.8 7
v 5.96046e-08 0.8 7
v 5.96046e-08 0.9 7.1
v 0.1 0.9 7.1
v 0.4 0.9 7.1
v 0.5 0.9 7.1
v 5.96046e-08 0.9 7
v 0.1 0.9 7
v 0.4 0.9 7
v 0.5 0.9 7
v 0.5 1 7.2
v 0.6 1 7.2
v 0.5 1 7.1
v 0.6 1 7.1
v -0.0999999 1 7
v 5.96046e-08 1 7
v 0.5 1 7
v 0.6 1 7
v -0.0999999 1 6.9
v 5.96046e-08 1 6.9
v 0.6 1.1 7.1
v 0.7 1.1 7.1
v 0.6 1.1 7
v 0.7 1.1 7
v 0.5 1.2 7
v 0.6 1.2 7
v 0.5 1.2 6.9
v 0.6 1.2 6.9

# faces
f 3/3/1 2/3/1 1/3/1
f 4/3/1 2/3/1 3/3/1
f 8/4/1 6/4/1 5/4/1
f 9/4/1 6/4/1 8/4/1
f 11/3/1 8/3/1 7/3/1
f 12/3/1 10/3/1 9/3/1
f 13/3/1 11/3/1 7/3/1
f 14/4/1 12/4/1 11/4/1
f 14/3/1 11/3/1 13/3/1
f 15/3/1 10/3/1 12/3/1
f 15/4/1 12/4/1 14/4/1
f 16/3/1 10/3/1 15/3/1
f 17/3/1 10/3/1 16/3/1
f 18/4/1 17/4/1 16/4/1
f 19/4/1 17/4/1 18/4/1
f 22/4/1 21/4/1 20/4/1
f 23/4/1 21/4/1 22/4/1
f 27/2/1 25/2/1 24/2/1
f 28/1/1 26/1/1 25/1/1
f 28/2/1 25/2/1 27/2/1
f 29/1/1 26/1/1 28/1/1
f 30/1/1 26/1/1 29/1/1
f 31/1/1 29/1/1 28/1/1
f 32/1/1 29/1/1 31/1/1
f 35/3/1 34/3/1 33/3/1
f 36/3/1 34/3/1 35/3/1
f 41/1/1 38/1/1 37/1/1
f 42/1/1 38/1/1 41/1/1
f 43/1/1 40/1/1 39/1/1
f 44/1/1 40/1/1 43/1/1
f 46/4/1 43/4/1 42/4/1
f 47/4/1 43/4/1 46/4/1
f 49/3/1 46/3/1 45/3/1
f 50/3/1 48/3/1 47/3/1
f 51/3/1 49/3/1 45/3/1
f 52/4/1 50/4/1 49/4/1
f 52/3/1 49/3/1 51/3/1
f 53/3/1 48/3/1 50/3/1
f 53/4/1 50/4/1 52/4/1
f 54/3/1 48/3/1 53/3/1
f 55/3/1 48/3/1 54/3/1
f 56/4/1 55/4/1 54/4/1
f 57/4/1 55/4/1 56/4/1
f 60/4/1 59/4/1 58/4/1
f 61/4/1 59/4/1 60/4/1
f 62/4/2 63/4/2 65/4/2
f 65/4/2 63/4/2 66/4/2
f 64/3/2 65/3/2 68/3/2
f 66/3/2 67/3/2 69/3/2
f 64/3/2 68/3/2 70/3/2
f 70/3/2 68/3/2 71/3/2
f 69/3/2 67/3/2 72/3/2
f 72/3/2 67/3/2 73/3/2
f 73/3/2 67/3/2 74/3/2
f 73/4/2 74/4/2 75/4/2
f 75/4/2 74/4/2 76/4/2
f 77/4/2 78/4/2 79/4/2
f 79/4/2 78/4/2 80/4/2
f 79/3/2 80/3/2 81/3/2
f 81/3/2 80/3/2 82/3/2
f 81/4/2 82/4/2 83/4/2
f 83/4/2 82/4/2 84/4/2
f 85/1/2 86/1/2 89/1/2
f 89/1/2 86/1/2 90/1/2
f 87/1/2 88/1/2 91/1/2
f 91/1/2 88/1/2 92/1/2
f 90/4/2 91/4/2 94/4/2
f 94/4/2 91/4/2 95/4/2
f 93/3/2 94/3/2 97/3/2
f 95/3/2 96/3/2 98/3/2
f 93/3/2 97/3/2 99/3/2
f 99/3/2 97/3/2 100/3/2
f 98/3/2 96/3/2 101/3/2
f 101/3/2 96/3/2 102/3/2
f 102/3/2 96/3/2 103/3/2
f 102/4/2 103/4/2 104/4/2
f 104/4/2 103/4/2 105/4/2
f 106/1/2 107/1/2 110/1/2
f 107/2/2 108/2/2 111/2/2
f 110/1/2 107/1/2 111/1/2
f 108/1/2 109/1/2 112/1/2
f 111/2/2 108/2/2 112/2/2
f 112/1/2 109/1/2 113/1/2
f 111/1/2 112/1/2 114/1/2
f 114/1/2 112/1/2 115/1/2
f 116/4/2 117/4/2 118/4/2
f 118/4/2 117/4/2 119/4/2
f 118/3/2 119/3/2 120/3/2
f 120/3/2 119/3/2 121/3/2
f 120/4/2 121/4/2 122/4/2
f 122/4/2 121/4/2 123/4/2
f 126/3/3 125/3/3 124/3/3
f 127/3/3 125/3/3 126/3/3
f 130/2/3 129/2/3 128/2/3
f 134/2/3 130/2/3 128/2/3
f 135/1/3 131/1/3 130/1/3
f 135/2/3 130/2/3 134/2/3
f 136/1/3 131/1/3 135/1/3
f 137/3/3 133/3/3 132/3/3
f 138/3/3 133/3/3 137/3/3
f 139/1/3 135/1/3 134/1/3
f 140/1/3 135/1/3 139/1/3
f 144/3/3 142/3/3 141/3/3
f 145/3/3 142/3/3 144/3/3
f 146/4/3 144/4/3 143/4/3
f 147/4/3 144/4/3 146/4/3
f 151/4/3 148/4/3 147/4/3
f 152/3/3 149/3/3 148/3/3
f 152/4/3 148/4/3 151/4/3
f 153/4/3 150/4/3 149/4/3
f 153/3/3 149/3/3 152/3/3
f 154/4/3 150/4/3 153/4/3
f 159/1/3 156/1/3 155/1/3
f 160/1/3 156/1/3 159/1/3
f 161/3/3 158/3/3 157/3/3
f 162/3/3 158/3/3 161/3/3
f 164/4/3 161/4/3 160/4/3
f 165/4/3 161/4/3 164/4/3
f 169/1/3 164/1/3 163/1/3
f 170/1/3 164/1/3 169/1/3
f 171/4/3 166/4/3 165/4/3
f 172/3/3 167/3/3 166/3/3
f 172/4/3 166/4/3 171/4/3
f 173/4/3 168/4/3 167/4/3
f 173/3/3 167/3/3 172/3/3
f 174/4/3 168/4/3 173/4/3
f 178/3/3 176/3/3 175/3/3
f 179/4/3 177/4/3 176/4/3
f 179/3/3 176/3/3 178/3/3
f 180/4/3 177/4/3 179/4/3
f 184/3/3 182/3/3 181/3/3
f 185/4/3 183/4/3 182/4/3
f 185/3/3 182/3/3 184/3/3
f 186/4/3 183/4/3 185/4/3
f 187/3/4 188/3/4 190/3/4
f 190/3/4 188/3/4 191/3/4
f 189/4/4 190/4/4 192/4/4
f 192/4/4 190/4/4 193/4/4
f 193/4/4 194/4/4 197/4/4
f 194/3/4 195/3/4 198/3/4
f 197/4/4 194/4/4 198/4/4
f 195/4/4 196/4/4 199/4/4
f 198/3/4 195/3/4 199/3/4
f 199/4/4 196/4/4 200/4/4
f 201/1/4 202/1/4 205/1/4
f 205/1/4 202/1/4 206/1/4
f 203/3/4 204/3/4 207/3/4
f 207/3/4 204/3/4 208/3/4
f 206/4/4 207/4/4 210/4/4
f 210/4/4 207/4/4 211/4/4
f 209/1/4 210/1/4 215/1/4
f 215/1/4 210/1/4 216/1/4
f 211/4/4 212/4/4 217/4/4
f 212/3/4 213/3/4 218/3/4
f 217/4/4 212/4/4 218/4/4
f 213/4/4 214/4/4 219/4/4
f 218/3/4 213/3/4 219/3/4
f 219/4/4 214/4/4 220/4/4
f 221/3/4 222/3/4 224/3/4
f 222/4/4 223/4/4 225/4/4
f 224/3/4 222/3/4 225/3/4
f 225/4/4 223/4/4 226/4/4
f 227/1/4 228/1/4 229/1/4
f 229/1/4 228/1/4 230/1/4
f 229/2/4 230/2/4 235/2/4
f 230/1/4 231/1/4 236/1/4
f 235/2/4 230/2/4 236/2/4
f 236/1/4 231/1/4 237/1/4
f 232/3/4 233/3/4 238/3/4
f 233/4/4 234/4/4 239/4/4
f 238/3/4 233/3/4 239/3/4
f 239/4/4 234/4/4 240/4/4
f 235/1/4 236/1/4 241/1/4
f 241/1/4 236/1/4 242/1/4
f 248/2/5 244/2/5 243/2/5
f 249/2/5 244/2/5 248/2/5
f 250/1/5 245/1/5 244/1/5
f 250/2/5 244/2/5 249/2/5
f 251/1/5 245/1/5 250/1/5
f 252/4/5 247/4/5 246/4/5
f 253/4/5 247/4/5 252/4/5
f 254/1/5 249/1/5 248/1/5
f 254/7/5 250/7/5 249/7/5
f 255/2/5 251/2/5 250/2/5
f 255/7/5 250/7/5 254/7/5
f 256/2/5 251/2/5 255/2/5
f 257/1/5 254/1/5 248/1/5
f 258/2/5 255/2/5 254/2/5
f 258/1/5 254/1/5 257/1/5
f 259/1/5 256/1/5 255/1/5
f 259/2/5 255/2/5 258/2/5
f 260/1/5 256/1/5 259/1/5
f 264/3/5 262/3/5 261/3/5
f 265/3/5 262/3/5 264/3/5
f 267/3/5 264/3/5 263/3/5
f 268/3/5 264/3/5 267/3/5
f 269/4/5 266/4/5 265/4/5
f 270/4/5 266/4/5 269/4/5
f 271/3/5 269/3/5 268/3/5
f 272/3/5 269/3/5 271/3/5
f 276/3/5 274/3/5 273/3/5
f 277/3/5 274/3/5 276/3/5
f 279/3/5 276/3/5 275/3/5
f 280/3/5 276/3/5 279/3/5
f 281/4/5 278/4/5 277/4/5
f 282/4/5 278/4/5 281/4/5
f 283/3/5 281/3/5 280/3/5
f 284/3/5 281/3/5 283/3/5
f 285/2/6 286/2/6 289/2/6
f 289/2/6 286/2/6 290/2/6
f 287/1/6 288/1/6 291/1/6
f 291/1/6 288/1/6 292/1/6
f 293/1/6 294/1/6 297/1/6
f 297/1/6 294/1/6 298/1/6
f 295/1/6 296/1/6 299/1/6
f 299/1/6 296/1/6 300/1/6
f 301/1/6 302/1/6 306/1/6
f 306/1/6 302/1/6 307/1/6
f 303/3/6 304/3/6 309/3/6
f 309/3/6 304/3/6 310/3/6
f 305/1/6 306/1/6 311/1/6
f 311/1/6 306/1/6 312/1/6
f 307/1/6 308/1/6 313/1/6
f 313/1/6 308/1/6 314/1/6
f 312/1/6 313/1/6 315/1/6
f 315/1/6 313/1/6 316/1/6
f 317/3/6 318/3/6 319/3/6
f 319/3/6 318/3/6 320/3/6
f 319/4/6 320/4/6 321/4/6
f 321/4/6 320/4/6 322/4/6
f 323/4/6 324/4/6 327/4/6
f 327/4/6 324/4/6 328/4/6
f 325/3/6 326/3/6 329/3/6
f 329/3/6 326/3/6 330/3/6
f 331/3/6 332/3/6 333/3/6
f 333/3/6 332/3/6 334/3/6
f 333/4/6 334/4/6 337/4/6
f 337/4/6 334/4/6 338/4/6
f 335/4/6 336/4/6 339/4/6
f 339/4/6 336/4/6 340/4/6
f 341/4/6 342/4/6 343/4/6
f 343/4/6 342/4/6 344/4/6
f 345/4/6 346/4/6 347/4/6
f 347/4/6 346/4/6 348/4/6
